<svg xmlns="http://www.w3.org/2000/svg" width="471.701" height="284.447" viewBox="0 0 471.701 284.447">
  <path id="bed" d="M438.182,188.251h-4.65V111.4a48.931,48.931,0,0,0-48.874-48.876H87.041A48.931,48.931,0,0,0,38.167,111.4v76.853H33.516A33.555,33.555,0,0,0,0,221.769v49.659a33.556,33.556,0,0,0,33.518,33.518H74.955v31.542a10.482,10.482,0,0,0,20.964,0V304.945H375.781v31.542a10.482,10.482,0,0,0,20.964,0V304.945h41.438A33.556,33.556,0,0,0,471.7,271.428V221.769a33.558,33.558,0,0,0-33.519-33.518ZM59.132,111.4a27.942,27.942,0,0,1,27.91-27.911H384.658a27.942,27.942,0,0,1,27.91,27.911v76.853H399.13V167.2a24.369,24.369,0,0,0-24.341-24.343H267.34A24.371,24.371,0,0,0,242.994,167.2v21.05H228.7V167.2a24.371,24.371,0,0,0-24.346-24.343H96.911A24.369,24.369,0,0,0,72.57,167.2v21.05H59.132V111.4Zm204.827,76.853V167.2a3.425,3.425,0,0,1,3.381-3.378H374.789a3.422,3.422,0,0,1,3.377,3.378v21.05Zm-170.424,0V167.2a3.422,3.422,0,0,1,3.377-3.378H204.36a3.425,3.425,0,0,1,3.381,3.378v21.05H93.534Zm357.2,83.176a12.568,12.568,0,0,1-12.553,12.553H33.518a12.568,12.568,0,0,1-12.553-12.553V221.769a12.568,12.568,0,0,1,12.553-12.553H438.182a12.568,12.568,0,0,1,12.553,12.553Z" transform="translate(0 -62.523)" fill="#ae945d"/>
</svg>
