<svg xmlns="http://www.w3.org/2000/svg" width="471.701" height="414.7" viewBox="0 0 471.701 414.7">
  <g id="heart" transform="translate(0 -28.501)">
    <path id="Tracé_6" data-name="Tracé 6" d="M433.6,67a130.609,130.609,0,0,0-184.7.1L236,80,222.9,66.9a130.489,130.489,0,0,0-184.7-.2,130.488,130.488,0,0,0,.2,184.7L226.2,439.2a13.4,13.4,0,0,0,19,.1L433.4,251.8A130.851,130.851,0,0,0,433.6,67ZM414.4,232.7l-178.7,178L57.4,232.4A103.52,103.52,0,1,1,203.8,86l22.6,22.6a13.46,13.46,0,0,0,19.1,0l22.4-22.4A103.591,103.591,0,0,1,414.4,232.7Z" fill="#ff2736"/>
  </g>
</svg>
