<svg id="Groupe_6" data-name="Groupe 6" xmlns="http://www.w3.org/2000/svg" xmlns:xlink="http://www.w3.org/1999/xlink" width="148.998" height="121.061" viewBox="0 0 148.998 121.061">
  <defs>
    <clipPath id="clip-path">
      <rect id="SVGID" width="148.998" height="121.061"/>
    </clipPath>
  </defs>
  <g id="Groupe_5" data-name="Groupe 5" clip-path="url(#clip-path)">
    <g id="Groupe_4" data-name="Groupe 4" transform="translate(0.004 0.046)">
      <path id="Tracé_3" data-name="Tracé 3" d="M581.558,431.9l36.43-34.875a4.689,4.689,0,0,0,.289-6.3,4.028,4.028,0,0,0-5.867-.344L562.16,438.54l-9.8-9.359c-.046,0-.046-.047-.046-.093-.251-.2-.438-.438-.68-.633l-39.922-38.078a3.95,3.95,0,0,0-5.867.344,4.642,4.642,0,0,0,.335,6.3l36.867,35.164-36.718,36.663a4.761,4.761,0,0,0-.2,6.313,4.126,4.126,0,0,0,3.055,1.406,4.189,4.189,0,0,0,2.868-1.164l37.25-37.2,10.085,9.6a4.007,4.007,0,0,0,2.813,1.117,4.108,4.108,0,0,0,2.766-1.117l10.374-9.945,37.063,37.547a3.995,3.995,0,0,0,5.867-.149,4.687,4.687,0,0,0-.149-6.3Zm36.812-59.469H505.8c-10.039,0-18.187,8.688-18.187,19.407V474c0,10.719,8.148,19.4,18.187,19.4H618.323c10.085,0,18.234-8.679,18.234-19.4V391.885C636.613,381.167,628.408,372.432,618.37,372.432Zm0,112.093H505.8c-5.438,0-9.9-4.7-9.9-10.523V391.885c0-5.82,4.46-10.579,9.9-10.579H618.323c5.485,0,9.9,4.759,9.9,10.579V474h.047C628.269,479.822,623.855,484.525,618.37,484.525Z" transform="translate(-487.615 -372.432)"/>
    </g>
  </g>
</svg>
