<svg xmlns="http://www.w3.org/2000/svg" xmlns:xlink="http://www.w3.org/1999/xlink" width="454.648" height="414.7" viewBox="0 0 454.648 414.7">
  <defs>
    <clipPath id="clip-path">
      <rect id="Rectangle_1" data-name="Rectangle 1" width="454.648" height="414.7" transform="translate(0.809 0.83)" fill="#ae945d"/>
    </clipPath>
  </defs>
  <g id="sofa" transform="translate(-0.809 -0.83)" clip-path="url(#clip-path)">
    <path id="Tracé_7" data-name="Tracé 7" d="M400.042,152.825a11.453,11.453,0,0,0,2.571,1.014c26.468,1.052,39.157,18.524,46.226,40.785,6.26,19.715,6.121,40.351,3.892,60.921-1.435,13.234-2.2,26.541-3.516,39.79a75.217,75.217,0,0,1-10.506,32.131c-5.687,9.321-13.59,15.981-24.592,17.523-15.755,2.208-31.6,3.771-47.414,5.539-2.875.322-5.785.316-9.892.519,1.745,8.011,3.319,15.439,4.988,22.85,1.354,6.02,2.965,11.985,4.171,18.033a25.678,25.678,0,0,1,.51,8.649A12.848,12.848,0,0,1,355,412.117a12.258,12.258,0,0,1-13.315-9.182,212.788,212.788,0,0,1-4.011-22.978c-1.4-8.907-2.684-17.833-3.965-26.4H118.523c-1.853,10.86-3.6,21.665-5.58,32.43a116.082,116.082,0,0,1-3.772,16.089c-2.892,8.573-9.068,12.692-15.852,11.347-6.945-1.377-11.494-8.541-9.727-17.691,2.21-11.451,5.587-22.677,8.437-34.009.7-2.782,1.307-5.585,2.264-9.7-10.118-1.13-19.664-1.916-29.105-3.333a244.228,244.228,0,0,1-26.731-5.168c-16.7-4.449-27.2-15.35-29.295-32.673-2.648-21.917-4.432-43.942-6.378-65.942-.886-10.023-1.805-20.1-1.712-30.14a107.484,107.484,0,0,1,2.678-26c6.751-25.717,28.86-41.051,55.423-39.5,2.511.146,5.018.38,7.815.6-3.021-31.738-1.4-62.838,1.236-93.927,2.134-25.211,14-39.9,38.187-47.137,18.9-5.652,38.453-7.088,57.922-7.229,57.275-.4,114.553-.047,171.832.19a92.605,92.605,0,0,1,20.355,1.94c20.723,4.8,33.67,17.975,37.6,38.847A320.363,320.363,0,0,1,399.718,86c.962,19.47.293,39.021.325,58.539C400.048,147.407,400.042,150.279,400.042,152.825ZM355.08,190.859a117.087,117.087,0,0,1,6.046-10.98c3.637-5.342,9.588-9.838,11.208-15.631,1.727-6.165-.774-13.415-.855-20.2-.243-20.807.246-41.632-.464-62.418a339.7,339.7,0,0,0-4.04-36.775c-1.522-10.52-8.272-16.685-18.5-18.749a70.935,70.935,0,0,0-14.5-1.366c-25.694.2-51.388.476-77.076,1.014-33.163.7-66.343,1.183-99.47,2.756-14.185.673-28.344,3.407-42.347,6.04C103.271,36.768,97.13,44.457,95.152,56.63c-5.486,33.777-7.718,67.8-8.821,101.923a11.574,11.574,0,0,0,2.348,6.968,83.157,83.157,0,0,1,17.463,37.6,3.525,3.525,0,0,0,1.059,1.918c12.61-2.429,24.266-5.884,36.108-6.738,41.181-2.968,82.4-5.656,123.65-7.229C295.812,189.971,324.732,190.859,355.08,190.859ZM244.323,325.616v-.785c37.743,0,75.491.333,113.227-.162,14.918-.191,29.821-2.093,44.7-3.464a19.12,19.12,0,0,0,17.187-13.8,54.494,54.494,0,0,0,2.281-14.216c.588-10.379,0-20.87,1.232-31.158a241.544,241.544,0,0,0,1.032-55.467,44.574,44.574,0,0,0-9.237-22.146c-3.7-4.978-8.559-6.586-14.489-6.128-10.779.833-20.178,9.173-23.271,21.85-2.855,11.665-5.089,23.489-7.266,35.3-2.156,11.688-8.718,19.964-18.541,26.215a54.1,54.1,0,0,1-25.659,8.414c-20.442,1.454-40.876,3.575-61.341,3.93-39.683.691-79.4.867-119.084.15-13.156-.236-26.3-3.586-39.359-6.029-12.627-2.364-18.48-11.414-20.194-23.265-1.2-8.332-1.454-16.81-1.964-25.234-.835-13.786-2.762-27.18-11.68-38.534-7.653-9.742-17.326-12.487-28.5-7.355-7.969,3.662-14.524,9.187-16.225,18.245a126.127,126.127,0,0,0-3.059,25.964c.4,16.55,1.946,33.088,3.317,49.608.942,11.332,2.553,22.608,3.567,33.938.835,9.324,5.534,14.964,14.684,16.906a48.519,48.519,0,0,0,5.707,1.206c22.986,2.043,45.95,5.223,68.973,5.747C161.662,326.289,203,325.616,244.323,325.616ZM348.6,216.3a141.393,141.393,0,0,0-14.613-1.881q-97.134-1.176-194.017,5.964c-8.265.6-16.5,3.291-24.46,5.9-5.718,1.876-5.326,7.229-4.974,12.365s3.5,6.612,7.645,7.1c10.637,1.238,21.267,2.926,31.945,3.363,59.541,2.439,118.963-2.159,178.433-3.9,7.136-.209,12.938-3.316,15.564-9.818C346.351,229.87,346.945,223.683,348.6,216.3Z" transform="translate(0.462 1.074)" fill="#ae945d"/>
  </g>
</svg>
