<svg xmlns="http://www.w3.org/2000/svg" xmlns:xlink="http://www.w3.org/1999/xlink" width="149" height="149" viewBox="0 0 149 149">
  <defs>
    <clipPath id="clip-path">
      <rect id="SVGID" width="149" height="149" transform="translate(0)"/>
    </clipPath>
  </defs>
  <g id="Groupe_10" data-name="Groupe 10" transform="translate(0)">
    <g id="Groupe_9" data-name="Groupe 9" clip-path="url(#clip-path)">
      <g id="Groupe_8" data-name="Groupe 8" transform="translate(0.735 0.362)">
        <path id="Tracé_4" data-name="Tracé 4" d="M567.616,381.632a39.36,39.36,0,0,1,21.539,11.2,40.272,40.272,0,0,1,11.2,21.679,4.21,4.21,0,0,0,4.172,3.492c.242,0,.428-.047.68-.047a4.28,4.28,0,0,0,3.492-4.9,48.732,48.732,0,0,0-39.633-39.773,4.235,4.235,0,1,0-1.453,8.344Zm36.96,56.694a14.551,14.551,0,0,0-10.523-4.843,15.057,15.057,0,0,0-10.718,4.8l-9.853,9.9c-.82-.437-1.648-.829-2.421-1.266a28.318,28.318,0,0,1-3.1-1.648C558.7,439.4,550.3,431.686,542.249,421.74a61.116,61.116,0,0,1-8.437-13.382c2.57-2.328,4.945-4.8,7.227-7.133.875-.875,1.742-1.8,2.617-2.664,6.593-6.6,6.593-15.133,0-21.735l-8.483-8.53c-.969-.978-1.993-1.993-2.915-3.008-1.891-1.946-3.828-3.93-5.867-5.82a14.89,14.89,0,0,0-10.476-4.61,15.239,15.239,0,0,0-10.625,4.61l-.093.046L494.57,370.28a23.031,23.031,0,0,0-6.742,14.6c-.773,9.163,1.946,17.7,3.976,23.281,5.047,13.68,12.618,26.429,23.914,40.015a148.137,148.137,0,0,0,48.937,38.507c7.227,3.4,16.836,7.469,27.555,8.148.624,0,1.3.047,1.937.047a23.643,23.643,0,0,0,18.047-7.757c0-.093.093-.093.14-.149a75.282,75.282,0,0,1,5.429-5.718c1.359-1.266,2.719-2.617,4.079-4.023a15.646,15.646,0,0,0,4.7-10.867,15.157,15.157,0,0,0-4.8-10.765Zm11.2,33.031c-1.21,1.313-2.477,2.524-3.836,3.836-1.983,1.937-4.069,3.977-6.006,6.258a15.055,15.055,0,0,1-11.743,4.991c-.484,0-.968,0-1.453-.047-9.266-.587-17.9-4.219-24.352-7.329a138.955,138.955,0,0,1-46.124-36.225c-10.672-12.907-17.8-24.836-22.5-37.64-2.915-7.8-3.977-13.866-3.492-19.64a14.35,14.35,0,0,1,4.265-9.312l10.672-10.672a7.072,7.072,0,0,1,4.75-2.235,6.475,6.475,0,0,1,4.563,2.188l.093.093c1.946,1.8,3.734,3.641,5.625,5.625.978.969,1.993,1.993,2.961,3.008l8.54,8.586c3.3,3.3,3.3,6.407,0,9.7-.922.922-1.751,1.844-2.673,2.71-2.617,2.719-5.14,5.2-7.851,7.664l-.149.149a6.454,6.454,0,0,0-1.648,7.133l.093.289a69.5,69.5,0,0,0,10.094,16.539h.047A115.6,115.6,0,0,0,563.4,452.4a38.746,38.746,0,0,0,3.828,2.086c1.164.577,2.188,1.117,3.11,1.648a1.738,1.738,0,0,0,.382.242,6.878,6.878,0,0,0,3.11.773,6.731,6.731,0,0,0,4.75-2.179l10.672-10.719a7.07,7.07,0,0,1,4.7-2.328,6.372,6.372,0,0,1,4.516,2.281l17.265,17.358C618.983,464.763,618.983,468.06,615.78,471.356Zm19.7-59.562a80.172,80.172,0,0,0-65.242-65.475,4.19,4.19,0,0,0-4.852,3.445,4.248,4.248,0,0,0,3.445,4.9,71.743,71.743,0,0,1,58.351,58.547A4.129,4.129,0,0,0,631.3,416.7a2.984,2.984,0,0,0,.726-.056A4.173,4.173,0,0,0,635.475,411.794Z" transform="translate(-487.694 -346.247)"/>
      </g>
    </g>
  </g>
</svg>
