<svg xmlns="http://www.w3.org/2000/svg" width="411.348" height="414.7" viewBox="0 0 411.348 414.7">
  <g id="whats" transform="translate(-1.69 0)">
    <path id="Tracé_8" data-name="Tracé 8" d="M197.309.24C87.787,5.455,1.359,96.665,1.691,206.311a204.771,204.771,0,0,0,22.386,92.768L2.24,405.074a8.006,8.006,0,0,0,9.686,9.405l103.863-24.607a204.706,204.706,0,0,0,88.376,21.453c111.942,1.71,205.282-87.175,208.771-199.075C416.676,92.3,317.678-5.493,197.309.24Zm123.93,319.31a161.148,161.148,0,0,1-185.55,30.372l-14.464-7.205L57.546,357.8l13.4-65.068-7.126-13.954A161.184,161.184,0,0,1,93.489,91.8,161.044,161.044,0,1,1,321.239,319.55Z" transform="translate(0)" fill="#7ad06d"/>
    <path id="Tracé_9" data-name="Tracé 9" d="M308.027,251.16l-39.839-11.439a14.848,14.848,0,0,0-14.694,3.871l-9.742,9.926a14.514,14.514,0,0,1-15.778,3.33c-18.846-7.627-58.49-42.875-68.614-60.506a14.513,14.513,0,0,1,1.148-16.085l8.506-11a14.848,14.848,0,0,0,1.832-15.085L154.084,116.26a14.857,14.857,0,0,0-23.2-5.312c-11.119,9.4-24.312,23.695-25.915,39.527-2.828,27.913,9.143,63.1,54.411,105.349,52.3,48.811,94.176,55.259,121.443,48.654,15.466-3.746,27.826-18.764,35.626-31.06A14.857,14.857,0,0,0,308.027,251.16Z" transform="translate(-0.845 -0.882)" fill="#7ad06d"/>
  </g>
</svg>
